<svg width="20px" height="20px" fill="#000000" version="1.1" id="Layer_1" xmlns="http://www.w3.org/2000/svg" xmlns:xlink="http://www.w3.org/1999/xlink" 
	 viewBox="0 0 200 200" xml:space="preserve">
<g>
	<g>
		<g>
			<path d="M152.617,1.06c-1.386-1.386-3.839-1.386-5.225,0l-44.415,44.417c-1.443,1.443-1.443,3.781,0,5.225
				c14.404,14.408,14.404,37.848,0,52.254c-14.408,14.408-37.848,14.408-52.256,0c-1.386-1.386-3.839-1.386-5.225,0L1.082,147.372
				c-1.443,1.443-1.443,3.781,0,5.225c20.888,20.89,48.328,31.335,75.768,31.335s54.879-10.444,75.768-31.335
				C194.396,110.82,194.396,42.84,152.617,1.06z M147.392,147.372c-38.026,38.024-99.353,38.88-138.424,2.565l39.25-39.251
				c17.401,14.736,43.576,13.903,59.985-2.506c16.407-16.407,17.24-42.58,2.504-59.983l39.251-39.251
				C186.272,48.017,185.415,109.35,147.392,147.372z"/>
			<rect x="60.092" y="91.425" transform="matrix(0.7071 0.7071 -0.7071 0.7071 85.9429 -17.2437)" width="7.389" height="7.39"/>
			<rect x="75.768" y="91.424" transform="matrix(-0.7071 -0.7071 0.7071 -0.7071 68.3913 218.5671)" width="7.389" height="7.39"/>
			<rect x="73.155" y="78.362" transform="matrix(0.7071 0.7071 -0.7071 0.7071 80.5317 -30.3071)" width="7.389" height="7.39"/>
			<rect x="88.83" y="83.587" transform="matrix(0.7071 -0.7071 0.7071 0.7071 -34.6172 90.9896)" width="7.392" height="7.389"/>
			<rect x="94.057" y="57.46" transform="matrix(0.7071 0.7071 -0.7071 0.7071 71.8725 -51.2089)" width="7.389" height="7.389"/>
			<rect x="86.218" y="70.52" transform="matrix(0.7071 0.7071 -0.7071 0.7071 78.8143 -41.8405)" width="7.389" height="7.392"/>
			<rect x="99.282" y="73.136" transform="matrix(0.7071 0.7071 -0.7071 0.7071 84.4895 -50.3121)" width="7.389" height="7.392"/>
			<rect x="86.219" y="96.647" transform="matrix(-0.7071 -0.7071 0.7071 -0.7071 82.5395 234.8732)" width="7.389" height="7.39"/>
		</g>
	</g>
</g>
</svg>